<?xml version="1.0" encoding="UTF-8" standalone="no"?>
<svg
   version="1.0"
   width="786pt"
   height="696pt"
   viewBox="0 0 786 696"
   preserveAspectRatio="xMidYMid"
   id="svg3"
   sodipodi:docname="ce9ca554-5fa3-4cd6-978e-8d24ca038cb3.svg"
   xmlns:inkscape="http://www.inkscape.org/namespaces/inkscape"
   xmlns:sodipodi="http://sodipodi.sourceforge.net/DTD/sodipodi-0.dtd"
   xmlns="http://www.w3.org/2000/svg"
   xmlns:svg="http://www.w3.org/2000/svg">
  <defs
     id="defs3">
    <clipPath
       clipPathUnits="userSpaceOnUse"
       id="clipPath10">
      <path
         id="path10"
         style="fill:#ff0000;fill-opacity:1;fill-rule:nonzero;stroke:none;stroke-width:7.5"
         d="m 5260.5176,2198.5546 c -1.9608,-0.3045 -3.9345,-0.6195 -5.8887,-0.7327 h 5.1563 c 0.2347,0.2497 0.5002,0.4807 0.732,0.7327 z M 5250,2198.1445 v -0.3225 h 3.5156 c -1.1876,-0.015 -2.3609,0.098 -3.5156,0.3225 z" />
    </clipPath>
    <clipPath
       clipPathUnits="userSpaceOnUse"
       id="clipPath15">
      <path
         id="path16"
         style="fill:#ff0000;fill-opacity:1;fill-rule:nonzero;stroke:none;stroke-width:7.5"
         d="m 5939.1504,839.19435 c -0.2235,-0.9759 -0.4447,-1.95188 -0.6592,-2.92973 0.4687,0.2355 0.9371,0.46875 1.4062,0.70275 0.038,0.015 0.068,0.03 0.1028,0.045 v 2.18265 z" />
    </clipPath>
  </defs>
  <sodipodi:namedview
     id="namedview3"
     pagecolor="#ffffff"
     bordercolor="#000000"
     borderopacity="0.25"
     inkscape:showpageshadow="2"
     inkscape:pageopacity="0.0"
     inkscape:pagecheckerboard="0"
     inkscape:deskcolor="#d1d1d1"
     inkscape:document-units="pt" />
  <metadata
     id="metadata1">
Created by potrace 1.16, written by Peter Selinger 2001-2019
</metadata>
  <g
     transform="matrix(0.1,0,0,-0.1,0,696)"
     fill="#000000"
     stroke="none"
     id="g3">
    <path
       d="m 2421,6357 c -7,-10 -11,-637 -11,-2181 0,-1192 -2,-2172 -6,-2177 -10,-17 -46,-9 -124,26 -43,19 -84,35 -92,35 -7,0 -23,7 -36,15 -18,13 -52,15 -209,12 -178,-3 -194,-5 -288,-35 -178,-55 -239,-79 -305,-117 -36,-21 -81,-46 -100,-57 -19,-11 -37,-23 -40,-27 -10,-13 -86,-68 -102,-74 -10,-4 -18,-13 -18,-21 0,-8 -6,-19 -14,-23 -23,-12 -136,-122 -136,-132 0,-4 -11,-18 -25,-31 -14,-13 -25,-28 -25,-34 0,-6 -26,-63 -57,-126 -58,-115 -58,-115 -57,-240 1,-113 4,-134 34,-220 22,-63 42,-103 61,-121 16,-15 29,-32 29,-38 0,-5 19,-19 43,-29 23,-11 73,-40 110,-65 45,-30 84,-47 115,-52 26,-3 57,-13 69,-21 32,-20 389,-20 412,0 9,7 46,19 83,25 65,11 124,33 243,92 33,16 65,29 71,29 6,0 19,9 30,21 10,12 39,33 64,47 25,14 59,38 75,53 17,15 52,41 79,58 29,18 64,53 86,85 20,30 54,74 74,98 55,64 139,237 150,311 5,35 11,946 15,2112 3,1128 10,2057 14,2067 5,9 20,21 35,26 18,7 564,11 1669,11 1483,-1 1643,-2 1655,-16 11,-13 13,-350 13,-1831 0,-1664 -1,-1816 -16,-1825 -12,-8 -32,-3 -80,20 -142,68 -190,82 -274,81 -231,-1 -301,-5 -335,-20 -19,-8 -53,-18 -75,-22 -22,-4 -66,-19 -97,-32 -32,-13 -70,-24 -86,-24 -17,0 -45,-12 -67,-30 -21,-16 -46,-30 -57,-30 -10,0 -21,-6 -24,-13 -3,-8 -49,-42 -102,-78 -53,-35 -99,-67 -100,-71 -9,-21 -77,-88 -89,-88 -7,0 -13,-3 -13,-7 0,-5 -23,-33 -50,-62 -28,-30 -50,-60 -50,-66 0,-5 -13,-37 -29,-70 -82,-171 -94,-208 -99,-297 -5,-92 16,-208 46,-258 62,-102 98,-150 113,-150 10,0 31,-11 47,-25 17,-14 33,-25 36,-25 4,0 29,-15 56,-34 33,-23 67,-36 102,-41 29,-4 65,-14 80,-21 31,-16 306,-19 373,-4 206,46 386,121 494,205 24,19 50,35 58,35 7,0 23,12 36,26 12,14 39,36 61,47 21,12 48,27 59,34 11,6 26,26 34,44 13,31 81,119 128,166 14,13 27,45 34,82 7,34 28,108 48,164 19,56 39,122 44,147 12,65 10,4759 -2,4782 -9,17 -80,18 -1893,18 -1539,0 -1886,-3 -1895,-13 z"
       id="path1" />
    <path
       d="m 5250,2223 c 1,-20 16,-31 30,-22 13,8 13,10 0,19 -18,12 -30,13 -30,3 z"
       id="path2"
       clip-path="url(#clipPath10)" />
    <path
       d="m 5923,824 c -3,-8 -1,-20 6,-27 8,-8 11,-4 11,16 0,30 -7,35 -17,11 z"
       id="path3"
       clip-path="url(#clipPath15)" />
  </g>
  <ellipse
     style="fill:#000000;stroke:#000011;stroke-width:10.2171;stroke-opacity:1"
     id="path17"
     cx="302.13315"
     cy="746.04608"
     rx="102.56777"
     ry="67.495781"
     transform="matrix(0.8936458,-0.44877298,0.33820941,0.94107088,0,0)"
     inkscape:transform-center-x="-0.45526165"
     inkscape:transform-center-y="-3.2289604" />
  <ellipse
     style="fill:#000000;stroke:#000011;stroke-width:10.217;stroke-dasharray:none;stroke-opacity:1"
     id="ellipse17"
     cx="-40.678658"
     cy="584.94165"
     rx="102.56777"
     ry="67.495781"
     transform="matrix(0.8936458,-0.44877298,0.33820941,0.94107088,0,0)"
     inkscape:transform-center-x="-0.45526165"
     inkscape:transform-center-y="-3.2289604" />
</svg>
